<svg xmlns="http://www.w3.org/2000/svg" width="525.386" height="56.824" viewBox="0 0 525.386 56.824">
  <g id="Group_90" data-name="Group 90" transform="translate(-741 -161)">
    <g id="Sitecore_2022_Logo_RGB" transform="translate(741 161)">
      <path id="Path_3" data-name="Path 3" d="M367.038,61.237V56.373H356.124V51.509h9.767V46.962h-9.767V42.533h10.321V37.748H350.667V61.237ZM337.46,46.408a2.631,2.631,0,0,1-.989.87,5.262,5.262,0,0,1-1.344.4,8.647,8.647,0,0,1-1.424.119h-2.689V42.335h3.045c.435,0,.87.04,1.3.079a4.446,4.446,0,0,1,1.226.4,2.925,2.925,0,0,1,.909.791,2.63,2.63,0,0,1,.356,1.344,2.714,2.714,0,0,1-.4,1.463M344.7,61.237l-6.129-10.044a6.907,6.907,0,0,0,3.6-2.333,6.4,6.4,0,0,0,1.3-4.033,7.09,7.09,0,0,0-.751-3.361,6.011,6.011,0,0,0-2.056-2.175,8.413,8.413,0,0,0-2.887-1.186,15.174,15.174,0,0,0-3.282-.356h-8.937V61.237h5.536V51.9h1.938l5.1,9.332Zm-31.991-8.9a7.565,7.565,0,0,1-1.384,2.294,6.745,6.745,0,0,1-2.135,1.5,6.888,6.888,0,0,1-5.457,0,6.58,6.58,0,0,1-2.1-1.5,7.564,7.564,0,0,1-1.384-2.294,8.516,8.516,0,0,1,0-5.773,5.81,5.81,0,0,1,1.384-2.254,6.733,6.733,0,0,1,4.824-2.056,6.483,6.483,0,0,1,2.729.554,6.745,6.745,0,0,1,2.135,1.5,7.378,7.378,0,0,1,1.384,2.254,7.727,7.727,0,0,1,.514,2.847,8.3,8.3,0,0,1-.514,2.926m5.615-8.027a10.538,10.538,0,0,0-2.689-3.875,12.594,12.594,0,0,0-4.073-2.452,15.558,15.558,0,0,0-10.2,0,12.417,12.417,0,0,0-4.033,2.452,11.977,11.977,0,0,0-2.689,3.875,12.574,12.574,0,0,0-.949,5.1,13.853,13.853,0,0,0,.949,5.062,10.826,10.826,0,0,0,2.689,3.954,11.608,11.608,0,0,0,4.033,2.531,15.068,15.068,0,0,0,10.2,0,12.148,12.148,0,0,0,4.073-2.531,11.893,11.893,0,0,0,2.689-3.954,12.573,12.573,0,0,0,.949-5.1,13.078,13.078,0,0,0-.949-5.062M290.284,57.955l-3.954-3.717a6.555,6.555,0,0,1-2.017,1.74,6.4,6.4,0,0,1-2.966.672,7.065,7.065,0,0,1-2.689-.514,6.466,6.466,0,0,1-2.1-1.463,7.378,7.378,0,0,1-1.384-2.254,8.3,8.3,0,0,1-.514-2.926,7.728,7.728,0,0,1,.514-2.847,7.565,7.565,0,0,1,1.384-2.294,6.745,6.745,0,0,1,2.135-1.5,7.157,7.157,0,0,1,2.729-.554,7.517,7.517,0,0,1,2.649.514,4.8,4.8,0,0,1,2.1,1.661l3.836-3.836a9.281,9.281,0,0,0-3.915-2.57,14.634,14.634,0,0,0-9.886,0,11.347,11.347,0,0,0-4.073,2.452,11.553,11.553,0,0,0-2.689,3.915,13.313,13.313,0,0,0-.989,5.1,12.75,12.75,0,0,0,.949,5.022,11.6,11.6,0,0,0,6.683,6.485,14.637,14.637,0,0,0,5.022.91,11.378,11.378,0,0,0,9.174-3.994m-27.048,3.282V56.373H252.322V51.509h9.728V46.962h-9.728V42.533h10.321V37.748H246.865V61.237ZM240.617,42.572V37.748H221.676v4.824h6.643V61.2h5.655V42.572Zm-25.15-4.824h-5.694V61.237h5.694Zm-12.614,2.294a10.276,10.276,0,0,0-3.638-2.135,11.937,11.937,0,0,0-4.073-.712,13.084,13.084,0,0,0-3.282.4,9.339,9.339,0,0,0-2.926,1.344,6.847,6.847,0,0,0-2.1,2.294,6.592,6.592,0,0,0-.791,3.361,5.888,5.888,0,0,0,1.859,4.587,7.13,7.13,0,0,0,1.938,1.265,21.439,21.439,0,0,0,2.214.87c.791.237,1.463.475,2.056.672a5.473,5.473,0,0,1,1.542.712,4.771,4.771,0,0,1,.949.83,1.589,1.589,0,0,1,.316,1.107,2.492,2.492,0,0,1-.277,1.186,1.953,1.953,0,0,1-.712.791,3.355,3.355,0,0,1-1.028.435,6.438,6.438,0,0,1-1.226.119,5.809,5.809,0,0,1-2.808-.712,6.627,6.627,0,0,1-2.254-1.779l-3.717,3.8a10.509,10.509,0,0,0,3.915,2.491,13.607,13.607,0,0,0,4.864.91,12.109,12.109,0,0,0,3.361-.475,8.947,8.947,0,0,0,2.887-1.424A7.42,7.42,0,0,0,201.9,57.52a7.568,7.568,0,0,0,.751-3.48,5.362,5.362,0,0,0-.712-2.926,6.9,6.9,0,0,0-1.74-1.977,8.907,8.907,0,0,0-2.333-1.265c-.87-.316-1.7-.633-2.491-.87-.554-.158-1.068-.356-1.5-.514a6.13,6.13,0,0,1-1.147-.554,1.877,1.877,0,0,1-.949-1.7,2.016,2.016,0,0,1,.316-1.147,2.285,2.285,0,0,1,.791-.712,3.261,3.261,0,0,1,1.028-.4,5.667,5.667,0,0,1,5.3,1.938Z" transform="translate(-111.784 -22.444)"/>
      <path id="Path_4" data-name="Path 4" d="M68.6,67.257A17.019,17.019,0,0,0,74.927,65.2a15.017,15.017,0,0,0,7.79-12.931l.04-.475H89.4a19.61,19.61,0,0,0-3.6-9.1L79,47.01a10.7,10.7,0,0,1,.751,10.44C77.893,61.721,73.5,65.438,68.6,67.257" transform="translate(-41.473 -25.815)" fill="#eb1f1f"/>
      <path id="Path_5" data-name="Path 5" d="M74.184,68.2H68.41a16.125,16.125,0,0,1-8.3,13.287,18.923,18.923,0,0,1-9.253,2.333A21.464,21.464,0,0,1,43.3,82.436a18.023,18.023,0,0,0,9.728,2.847h.04a16.991,16.991,0,0,0,14.908-8.818l.277-.475,3.875,2.452a19.635,19.635,0,0,0,2.135-8.858c-.04-.435-.04-.91-.079-1.384" transform="translate(-26.178 -41.231)" fill="#eb1f1f"/>
      <path id="Path_6" data-name="Path 6" d="M43.273,100.518h0c-6.208,0-12.021-3.084-16.173-8.344a19.562,19.562,0,0,0,26.059,9.411,19.766,19.766,0,0,0,8.7-7.988l-3.005-1.9a18,18,0,0,1-15.58,8.818" transform="translate(-16.384 -55.438)" fill="#eb1f1f"/>
      <path id="Path_7" data-name="Path 7" d="M28.432,49.034A20.642,20.642,0,1,1,49.074,28.392h0A20.631,20.631,0,0,1,28.432,49.034h0M28.432,0A28.412,28.412,0,1,0,56.824,28.432v-.04A28.394,28.394,0,0,0,28.432,0h0" fill="#eb1f1f"/>
    </g>
    <path id="Path_8" data-name="Path 8" d="M-80.86,3.3a14.388,14.388,0,0,0,3.3-.387A8.6,8.6,0,0,0-74.585,1.6,6.981,6.981,0,0,0-72.415-.9a8.475,8.475,0,0,0,.841-4,9.018,9.018,0,0,0-.841-4.172,6.765,6.765,0,0,0-2.17-2.523,8.081,8.081,0,0,0-2.978-1.245,16.451,16.451,0,0,0-3.3-.336h-3.533V3.3Zm-7.772-20.12h8.445a18.72,18.72,0,0,1,4.677.606,12.11,12.11,0,0,1,4.239,2,10.479,10.479,0,0,1,3.062,3.667,12.153,12.153,0,0,1,1.178,5.636A11.488,11.488,0,0,1-68.209.476a11.021,11.021,0,0,1-3.062,3.7A12.8,12.8,0,0,1-75.51,6.313,16.576,16.576,0,0,1-80.187,7h-8.445ZM-47.718-.87v.538a4.335,4.335,0,0,1-.034.538H-60.033a4,4,0,0,0,.454,1.6A4.068,4.068,0,0,0-58.552,3.05a5.106,5.106,0,0,0,1.447.824,4.752,4.752,0,0,0,1.682.3,5.387,5.387,0,0,0,2.557-.555A4.79,4.79,0,0,0-51.15,2.091l2.692,2.153a8.089,8.089,0,0,1-6.931,3.23,9.859,9.859,0,0,1-3.466-.589A8.178,8.178,0,0,1-61.6,5.22a7.506,7.506,0,0,1-1.817-2.641,9.1,9.1,0,0,1-.656-3.55,9.264,9.264,0,0,1,.656-3.55,8.081,8.081,0,0,1,1.8-2.725A8.052,8.052,0,0,1-58.906-9a9.064,9.064,0,0,1,3.381-.622,8.527,8.527,0,0,1,3.112.555,6.749,6.749,0,0,1,2.473,1.649,7.646,7.646,0,0,1,1.632,2.725A11.245,11.245,0,0,1-47.718-.87Zm-4.038-1.817a4.978,4.978,0,0,0-.219-1.48,3.388,3.388,0,0,0-.69-1.245,3.367,3.367,0,0,0-1.194-.858,4.176,4.176,0,0,0-1.7-.32A4.538,4.538,0,0,0-58.636-5.5a3.986,3.986,0,0,0-1.4,2.809Zm27.22-6.931a6.077,6.077,0,0,1,2.709.555A5.34,5.34,0,0,1-19.977-7.6a5.921,5.921,0,0,1,1.06,2.086,8.775,8.775,0,0,1,.336,2.423V7h-4.038v-8.95a11.457,11.457,0,0,0-.1-1.48,4,4,0,0,0-.437-1.4,2.9,2.9,0,0,0-.925-1.026,2.72,2.72,0,0,0-1.565-.4,3.082,3.082,0,0,0-1.615.4,3.527,3.527,0,0,0-1.11,1.043,4.465,4.465,0,0,0-.639,1.43,6.306,6.306,0,0,0-.2,1.565V7H-33.25V-2.754a4.145,4.145,0,0,0-.723-2.507,2.621,2.621,0,0,0-2.271-.993,3.118,3.118,0,0,0-1.581.387,3.33,3.33,0,0,0-1.093.993,4.554,4.554,0,0,0-.639,1.4,5.969,5.969,0,0,0-.219,1.6V7h-4.038V-9.147h3.836v2.591h.067A4.784,4.784,0,0,1-39.189-7.7a5.644,5.644,0,0,1,1.077-.976,5.128,5.128,0,0,1,1.43-.69A5.958,5.958,0,0,1-34.9-9.618a5.469,5.469,0,0,1,3.129.841,5.583,5.583,0,0,1,1.918,2.221A5.766,5.766,0,0,1-27.7-8.827,6.13,6.13,0,0,1-24.536-9.618Zm13.829,8.479A6.457,6.457,0,0,0-10.421.745a5.189,5.189,0,0,0,.858,1.682A4.491,4.491,0,0,0-8.117,3.639a4.341,4.341,0,0,0,2.086.471,4.341,4.341,0,0,0,2.086-.471A4.491,4.491,0,0,0-2.5,2.427,5.189,5.189,0,0,0-1.64.745a6.457,6.457,0,0,0,.286-1.884A6.291,6.291,0,0,0-1.64-3.007,5.219,5.219,0,0,0-2.5-4.672,4.309,4.309,0,0,0-3.944-5.867a4.474,4.474,0,0,0-2.086-.454,4.473,4.473,0,0,0-2.086.454A4.309,4.309,0,0,0-9.563-4.672a5.219,5.219,0,0,0-.858,1.665A6.291,6.291,0,0,0-10.707-1.139Zm-4.1,0a8.541,8.541,0,0,1,.69-3.482A8.142,8.142,0,0,1-12.255-7.3,8.231,8.231,0,0,1-9.462-9.012a9.693,9.693,0,0,1,3.432-.606A9.693,9.693,0,0,1-2.6-9.012,8.231,8.231,0,0,1,.194-7.3,8.143,8.143,0,0,1,2.061-4.622a8.541,8.541,0,0,1,.69,3.482,8.66,8.66,0,0,1-.69,3.5A8.286,8.286,0,0,1,.194,5.068,8.528,8.528,0,0,1-2.6,6.835a9.239,9.239,0,0,1-3.432.639,9.239,9.239,0,0,1-3.432-.639,8.528,8.528,0,0,1-2.793-1.766A8.286,8.286,0,0,1-14.122,2.36,8.66,8.66,0,0,1-14.812-1.139Zm42.226-10.7a5.147,5.147,0,0,0-1.9-1.464,5.672,5.672,0,0,0-2.473-.589,6.084,6.084,0,0,0-1.48.185,4.513,4.513,0,0,0-1.346.572,3.161,3.161,0,0,0-.993,1.009,2.78,2.78,0,0,0-.387,1.5,2.675,2.675,0,0,0,.336,1.379,3.061,3.061,0,0,0,.925.976,6.293,6.293,0,0,0,1.43.707q.841.3,1.851.606,1.144.37,2.372.841A9.188,9.188,0,0,1,28-4.874a6.169,6.169,0,0,1,1.682,1.951A5.948,5.948,0,0,1,30.341,0a7.472,7.472,0,0,1-.707,3.348A6.908,6.908,0,0,1,27.75,5.725a8.035,8.035,0,0,1-2.759,1.413,11.608,11.608,0,0,1-3.331.471,12.5,12.5,0,0,1-4.542-.858,8.773,8.773,0,0,1-3.634-2.54l3.028-2.826A6.081,6.081,0,0,0,18.851,3.3a6.584,6.584,0,0,0,2.877.707,6.5,6.5,0,0,0,1.514-.185,4.036,4.036,0,0,0,1.4-.622,3.485,3.485,0,0,0,1.009-1.094A3.167,3.167,0,0,0,26.034.476,2.656,2.656,0,0,0,25.6-1.089a3.912,3.912,0,0,0-1.178-1.077,8.454,8.454,0,0,0-1.75-.791l-2.12-.707A21,21,0,0,1,18.4-4.47a7.141,7.141,0,0,1-1.935-1.245,6.016,6.016,0,0,1-1.4-1.9,6.5,6.5,0,0,1-.538-2.809,6.158,6.158,0,0,1,.757-3.129,6.694,6.694,0,0,1,1.985-2.17A8.835,8.835,0,0,1,20.062-17a12.2,12.2,0,0,1,3.18-.421,11.326,11.326,0,0,1,3.684.639,9,9,0,0,1,3.247,1.918Zm18,7.167A3.56,3.56,0,0,0,44-5.8a4.373,4.373,0,0,0-1.918-.454,4.044,4.044,0,0,0-1.951.454,4.237,4.237,0,0,0-1.4,1.194,5.144,5.144,0,0,0-.824,1.665,6.654,6.654,0,0,0-.269,1.867A6.291,6.291,0,0,0,37.928.8a5.219,5.219,0,0,0,.858,1.665,4.359,4.359,0,0,0,1.43,1.194,4.218,4.218,0,0,0,2,.454,5.12,5.12,0,0,0,1.884-.37,3.59,3.59,0,0,0,1.514-1.077L48.14,5.22a6.69,6.69,0,0,1-2.574,1.665,9.523,9.523,0,0,1-3.381.589A9.959,9.959,0,0,1,38.8,6.9,8.021,8.021,0,0,1,36.01,5.22a7.98,7.98,0,0,1-1.884-2.692,8.924,8.924,0,0,1-.69-3.6,8.747,8.747,0,0,1,.69-3.533A8.1,8.1,0,0,1,35.994-7.3a8.343,8.343,0,0,1,2.742-1.716,9.192,9.192,0,0,1,3.348-.606,9.124,9.124,0,0,1,3.449.673,6.517,6.517,0,0,1,2.641,1.851ZM66.208-.87q0,.269,0,.538a4.338,4.338,0,0,1-.034.538H53.893a4,4,0,0,0,.454,1.6A4.068,4.068,0,0,0,55.374,3.05a5.106,5.106,0,0,0,1.447.824,4.752,4.752,0,0,0,1.682.3,5.387,5.387,0,0,0,2.557-.555,4.79,4.79,0,0,0,1.716-1.531l2.692,2.153a8.089,8.089,0,0,1-6.931,3.23,9.859,9.859,0,0,1-3.466-.589A8.178,8.178,0,0,1,52.329,5.22a7.507,7.507,0,0,1-1.817-2.641,9.1,9.1,0,0,1-.656-3.55,9.264,9.264,0,0,1,.656-3.55,8.081,8.081,0,0,1,1.8-2.725A8.052,8.052,0,0,1,55.021-9,9.064,9.064,0,0,1,58.4-9.618a8.527,8.527,0,0,1,3.112.555,6.749,6.749,0,0,1,2.473,1.649,7.646,7.646,0,0,1,1.632,2.725A11.244,11.244,0,0,1,66.208-.87ZM62.17-2.687a4.978,4.978,0,0,0-.219-1.48,3.388,3.388,0,0,0-.69-1.245,3.367,3.367,0,0,0-1.194-.858,4.176,4.176,0,0,0-1.7-.32A4.538,4.538,0,0,0,55.29-5.5a3.986,3.986,0,0,0-1.4,2.809Zm7.941-6.46h3.836v2.591h.067a5.222,5.222,0,0,1,1.867-2.137,5.367,5.367,0,0,1,3.146-.925,6.077,6.077,0,0,1,2.709.555A5.34,5.34,0,0,1,83.586-7.6a5.92,5.92,0,0,1,1.06,2.086,8.775,8.775,0,0,1,.336,2.423V7H80.945v-8.95a11.458,11.458,0,0,0-.1-1.48,4,4,0,0,0-.437-1.4,2.9,2.9,0,0,0-.925-1.026,2.72,2.72,0,0,0-1.565-.4,3.452,3.452,0,0,0-1.682.387,3.572,3.572,0,0,0-1.161.993,4.394,4.394,0,0,0-.69,1.4,5.571,5.571,0,0,0-.236,1.6V7H70.111ZM99.652-.365h-.908q-.976,0-2.052.084a8.912,8.912,0,0,0-1.985.37A4.238,4.238,0,0,0,93.192.9a1.788,1.788,0,0,0-.606,1.43,1.72,1.72,0,0,0,.252.959,1.937,1.937,0,0,0,.656.622,2.928,2.928,0,0,0,.908.336,5.135,5.135,0,0,0,1.009.1,4.209,4.209,0,0,0,3.163-1.11A4.165,4.165,0,0,0,99.652.207Zm.067,5.316h-.1a4.506,4.506,0,0,1-1.951,1.766,6.617,6.617,0,0,1-3.062.69,8.786,8.786,0,0,1-2.036-.252,6.059,6.059,0,0,1-1.951-.841,4.89,4.89,0,0,1-1.48-1.548,4.456,4.456,0,0,1-.589-2.372A4.02,4.02,0,0,1,89.575-.5a6.634,6.634,0,0,1,2.641-1.649A14.888,14.888,0,0,1,95.8-2.906q1.968-.185,3.852-.185v-.4a2.494,2.494,0,0,0-1.093-2.237,4.618,4.618,0,0,0-2.608-.723,5.843,5.843,0,0,0-2.456.538A6.612,6.612,0,0,0,91.544-4.6L89.457-7.061a9.111,9.111,0,0,1,3.18-1.918,10.837,10.837,0,0,1,3.651-.639,8.971,8.971,0,0,1,3.55.606,5.78,5.78,0,0,1,2.2,1.581,5.656,5.656,0,0,1,1.127,2.187,9.46,9.46,0,0,1,.32,2.423V7H99.72Zm8.479-14.1h3.869v2.692h.067a5.89,5.89,0,0,1,1.884-2.288,4.7,4.7,0,0,1,2.826-.875q.236,0,.5.017a1.862,1.862,0,0,1,.471.084v3.7a5.635,5.635,0,0,0-.69-.135,4.752,4.752,0,0,0-.555-.034,4.283,4.283,0,0,0-2.221.5,4.037,4.037,0,0,0-1.312,1.211,4.337,4.337,0,0,0-.639,1.447,5.63,5.63,0,0,0-.168,1.178V7H108.2Zm11.743-5.484a2.326,2.326,0,0,1,.723-1.7,2.485,2.485,0,0,1,1.834-.723,2.67,2.67,0,0,1,1.867.69,2.245,2.245,0,0,1,.757,1.733,2.245,2.245,0,0,1-.757,1.733,2.67,2.67,0,0,1-1.867.69,2.485,2.485,0,0,1-1.834-.723A2.326,2.326,0,0,1,119.941-14.631Zm.572,5.484h4.038V7h-4.038Zm12.113,8.008a6.457,6.457,0,0,0,.286,1.884,5.188,5.188,0,0,0,.858,1.682,4.491,4.491,0,0,0,1.447,1.211,4.341,4.341,0,0,0,2.086.471,4.341,4.341,0,0,0,2.086-.471,4.491,4.491,0,0,0,1.447-1.211,5.189,5.189,0,0,0,.858-1.682,6.457,6.457,0,0,0,.286-1.884,6.291,6.291,0,0,0-.286-1.867,5.22,5.22,0,0,0-.858-1.665,4.309,4.309,0,0,0-1.447-1.194,4.473,4.473,0,0,0-2.086-.454,4.473,4.473,0,0,0-2.086.454,4.309,4.309,0,0,0-1.447,1.194,5.219,5.219,0,0,0-.858,1.665A6.291,6.291,0,0,0,132.626-1.139Zm-4.1,0a8.541,8.541,0,0,1,.69-3.482A8.143,8.143,0,0,1,131.078-7.3a8.232,8.232,0,0,1,2.793-1.716,10.027,10.027,0,0,1,6.864,0A8.232,8.232,0,0,1,143.527-7.3a8.143,8.143,0,0,1,1.867,2.675,8.541,8.541,0,0,1,.69,3.482,8.66,8.66,0,0,1-.69,3.5,8.287,8.287,0,0,1-1.867,2.709,8.528,8.528,0,0,1-2.793,1.766,9.239,9.239,0,0,1-3.432.639,9.239,9.239,0,0,1-3.432-.639,8.528,8.528,0,0,1-2.793-1.766A8.287,8.287,0,0,1,129.21,2.36,8.66,8.66,0,0,1,128.521-1.139Zm30.315-3.7a4.661,4.661,0,0,0-1.48-1.228A4.168,4.168,0,0,0,155.3-6.59a3.931,3.931,0,0,0-1.783.4,1.392,1.392,0,0,0-.808,1.346,1.351,1.351,0,0,0,.892,1.329,16.316,16.316,0,0,0,2.608.791,14.692,14.692,0,0,1,1.834.538,6.7,6.7,0,0,1,1.682.892A4.394,4.394,0,0,1,160.956.089a3.975,3.975,0,0,1,.471,2,5.208,5.208,0,0,1-.555,2.507,4.718,4.718,0,0,1-1.48,1.665,6.234,6.234,0,0,1-2.153.925,11.164,11.164,0,0,1-2.54.286,10.084,10.084,0,0,1-3.667-.69,7.754,7.754,0,0,1-2.961-1.968l2.658-2.49a5.31,5.31,0,0,0,1.75,1.447,5.011,5.011,0,0,0,2.389.572,4.1,4.1,0,0,0,.892-.1,3.038,3.038,0,0,0,.841-.32,1.742,1.742,0,0,0,.622-.589,1.659,1.659,0,0,0,.236-.908A1.492,1.492,0,0,0,156.531.98a14.915,14.915,0,0,0-2.776-.875,13.347,13.347,0,0,1-1.766-.522,5.766,5.766,0,0,1-1.531-.841,3.9,3.9,0,0,1-1.077-1.3,4.114,4.114,0,0,1-.4-1.918,4.619,4.619,0,0,1,.555-2.322A4.767,4.767,0,0,1,151-8.39a6.575,6.575,0,0,1,2.052-.925,9.165,9.165,0,0,1,2.355-.3,9.92,9.92,0,0,1,3.415.606,5.766,5.766,0,0,1,2.641,1.851Z" transform="translate(1104.925 193.251)"/>
  </g>
</svg>
