<svg id="Sitecore_2022_Logo_RGB"
  xmlns="http://www.w3.org/2000/svg" width="40" height="40" viewBox="0 0 40 40">
  <path id="Path_4" data-name="Path 4" d="M68.6,59.986a11.98,11.98,0,0,0,4.454-1.447,10.571,10.571,0,0,0,5.484-9.1l.028-.334h4.676a13.8,13.8,0,0,0-2.533-6.4l-4.788,3.034a7.532,7.532,0,0,1,.529,7.349,13.928,13.928,0,0,1-7.85,6.9" transform="translate(-49.505 -30.814)" fill="#eb1f1f"/>
  <path id="Path_5" data-name="Path 5" d="M65.04,68.2H60.976a11.351,11.351,0,0,1-5.846,9.353A13.321,13.321,0,0,1,48.617,79.2a15.109,15.109,0,0,1-5.317-.974,12.687,12.687,0,0,0,6.848,2h.028A11.96,11.96,0,0,0,60.67,74.018l.195-.334,2.728,1.726a13.822,13.822,0,0,0,1.5-6.235c-.028-.306-.028-.64-.056-.974" transform="translate(-31.247 -49.216)" fill="#eb1f1f"/>
  <path id="Path_6" data-name="Path 6" d="M38.485,97.907h0A14.57,14.57,0,0,1,27.1,92.034a13.77,13.77,0,0,0,18.344,6.625,13.914,13.914,0,0,0,6.124-5.623L49.452,91.7a12.67,12.67,0,0,1-10.967,6.207" transform="translate(-19.557 -66.175)" fill="#eb1f1f"/>
  <path id="Path_7" data-name="Path 7" d="M20.014,34.516a14.53,14.53,0,1,1,14.53-14.53h0a14.523,14.523,0,0,1-14.53,14.53h0M20.014,0A20,20,0,1,0,40,20.014v-.028A19.988,19.988,0,0,0,20.014,0h0" fill="#eb1f1f"/>
</svg>
