<svg xmlns="http://www.w3.org/2000/svg" width="207.558" height="176.193" viewBox="0 0 207.558 176.193">
  <g id="undraw_onboarding_re_6osc" transform="translate(0)">
    <path id="Path_13" data-name="Path 13" d="M828.22,343.4c2.221,4.366,3.971,8.869,8.869,8.869a8.869,8.869,0,1,0,0-17.738C832.111,334.468,824.087,335.273,828.22,343.4Z" transform="translate(-651.371 -283.007)" fill="#2f2e41"/>
    <path id="Path_14" data-name="Path 14" d="M561.238,495.863l-3.79.844-5.062-14.218,5.594-1.247Z" transform="translate(-377.417 -328.809)" fill="#a0616a"/>
    <path id="Path_15" data-name="Path 15" d="M831.642,699.6l-12.222,2.723-.034-.155a4.873,4.873,0,0,1,3.7-5.817h0l7.465-1.663Z" transform="translate(-646.036 -529.085)" fill="#2f2e41"/>
    <path id="Path_16" data-name="Path 16" d="M603.518,511.132h-3.883l-1.848-14.978h5.732Z" transform="translate(-408.437 -338.997)" fill="#a0616a"/>
    <path id="Path_17" data-name="Path 17" d="M864.361,716.347H851.839v-.158a4.874,4.874,0,0,1,4.874-4.874h7.648Z" transform="translate(-668.29 -540.446)" fill="#2f2e41"/>
    <path id="Path_18" data-name="Path 18" d="M832.955,585.3H828a1.431,1.431,0,0,1-1.412-1.232l-4.493-34.753a.475.475,0,0,0-.93-.058l-2.663,9.923,2.4,22.6a1.424,1.424,0,0,1-1.1,1.553l-3.931.907a1.432,1.432,0,0,1-1.68-.96l-6.331-21.972a12.388,12.388,0,0,1-.515-4.988l1.981-19.808.15.007,26.446,1.274-1.546,46.129A1.42,1.42,0,0,1,832.955,585.3Z" transform="translate(-637.849 -421.014)" fill="#2f2e41"/>
    <ellipse id="Ellipse_7" data-name="Ellipse 7" cx="7.78" cy="7.78" rx="7.78" ry="7.78" transform="translate(177.502 53.875)" fill="#a0616a"/>
    <path id="Path_19" data-name="Path 19" d="M835.881,445.055l-.077,0-26.368-1.418a1.425,1.425,0,0,1-1.28-1.86l2.087-6.48a41.924,41.924,0,0,0,1.107-21.5,13.418,13.418,0,0,1,2.384-10.815,13.22,13.22,0,0,1,9.553-5.273h0q.194-.015.389-.027a13.358,13.358,0,0,1,14,15.315l-1.839,12.345,1.466,18.176a1.425,1.425,0,0,1-1.42,1.54Z" transform="translate(-638.396 -326.14)" fill="#ccc"/>
    <path id="Path_20" data-name="Path 20" d="M782.581,520.174a3.185,3.185,0,0,0,.5-4.859l5.077-10.117-5.841.692-3.926,9.5a3.2,3.2,0,0,0,4.192,4.783Z" transform="translate(-617.543 -399.618)" fill="#a0616a"/>
    <path id="Path_21" data-name="Path 21" d="M896.977,523.823a3.185,3.185,0,0,1,.322-4.873l-3.315-10.823,5.643,1.658,2.283,10.023a3.2,3.2,0,0,1-4.933,4.015Z" transform="translate(-697.085 -401.619)" fill="#a0616a"/>
    <path id="Path_22" data-name="Path 22" d="M883.553,448.42a1.418,1.418,0,0,1-1.411-1.238l-2.638-19.9-4.208-15.55a4.494,4.494,0,0,1,4.228-5.666h0a4.512,4.512,0,0,1,4.54,3.736l6.27,36.725a1.425,1.425,0,0,1-1.345,1.664l-5.374.227Z" transform="translate(-684.21 -331.885)" fill="#ccc"/>
    <path id="Path_23" data-name="Path 23" d="M787.888,443.887a1.456,1.456,0,0,1-.3-.032l-5.26-1.122a1.425,1.425,0,0,1-1.048-1.865L793.6,405.707a4.518,4.518,0,0,1,5.1-2.925h0a4.494,4.494,0,0,1,3.221,6.293l-6.755,14.648-5.919,19.159A1.417,1.417,0,0,1,787.888,443.887Z" transform="translate(-620.024 -329.587)" fill="#ccc"/>
    <path id="Path_24" data-name="Path 24" d="M831.247,343.654a10.582,10.582,0,0,0,6.047,1.869,6.484,6.484,0,0,1-2.57,1.057,21.335,21.335,0,0,0,8.715.049,5.643,5.643,0,0,0,1.824-.627,2.309,2.309,0,0,0,1.126-1.506c.191-1.092-.66-2.085-1.545-2.754a11.393,11.393,0,0,0-9.574-1.913,5.241,5.241,0,0,0-2.835,1.6,2.583,2.583,0,0,0-.239,3.067Z" transform="translate(-654.22 -286.396)" fill="#2f2e41"/>
    <path id="Path_25" data-name="Path 25" d="M408.795,171.875H275.126a2.765,2.765,0,0,0-2.762,2.762V304.923a2.765,2.765,0,0,0,2.762,2.762h11.72V306.9h-11.72a1.976,1.976,0,0,1-1.973-1.973V174.637a1.976,1.976,0,0,1,1.973-1.973H408.795a1.976,1.976,0,0,1,1.977,1.974V304.923a1.957,1.957,0,0,1-.326,1.083,2.041,2.041,0,0,1-.748.671,1.958,1.958,0,0,1-.9.219h-11.72v.789h11.72a2.76,2.76,0,0,0,2.1-.969.616.616,0,0,0,.06-.076,2.582,2.582,0,0,0,.4-.668,2.691,2.691,0,0,0,.209-1.048V174.637A2.765,2.765,0,0,0,408.795,171.875Z" transform="translate(-272.364 -171.875)" fill="#3f3d56"/>
    <rect id="Rectangle_32" data-name="Rectangle 32" width="138.407" height="0.79" transform="translate(0.393 11.071)" fill="#3f3d56"/>
    <ellipse id="Ellipse_8" data-name="Ellipse 8" cx="2.369" cy="2.369" rx="2.369" ry="2.369" transform="translate(4.736 3.554)" fill="#3f3d56"/>
    <ellipse id="Ellipse_9" data-name="Ellipse 9" cx="2.369" cy="2.369" rx="2.369" ry="2.369" transform="translate(11.546 3.554)" fill="#3f3d56"/>
    <ellipse id="Ellipse_10" data-name="Ellipse 10" cx="2.369" cy="2.369" rx="2.369" ry="2.369" transform="translate(18.357 3.554)" fill="#3f3d56"/>
    <path id="Path_26" data-name="Path 26" d="M444.541,246.767H377.707a4.118,4.118,0,1,1,0-8.236h66.835a4.118,4.118,0,0,1,0,8.236Zm-66.835-7.6a3.484,3.484,0,0,0,0,6.969h66.835a3.484,3.484,0,1,0,0-6.969Z" transform="translate(-341.526 -217.418)" fill="#3f3d56"/>
    <path id="Path_27" data-name="Path 27" d="M422.2,353.2H321.474a5.391,5.391,0,0,1-5.385-5.385V315.51a5.391,5.391,0,0,1,5.385-5.385H422.2a5.391,5.391,0,0,1,5.385,5.385v32.309A5.391,5.391,0,0,1,422.2,353.2ZM321.474,310.758a4.757,4.757,0,0,0-4.751,4.751v32.309a4.757,4.757,0,0,0,4.751,4.751H422.2a4.757,4.757,0,0,0,4.751-4.751V315.51a4.757,4.757,0,0,0-4.751-4.751Z" transform="translate(-302.239 -266.334)" fill="#3f3d56"/>
    <path id="Path_28" data-name="Path 28" d="M452.482,361.693H417.323a2.534,2.534,0,1,1,0-5.068h35.159a2.534,2.534,0,0,1,0,5.068Z" transform="translate(-369.676 -298.105)" fill="#5548d9"/>
    <path id="Path_29" data-name="Path 29" d="M485.108,388.693H417.323a2.534,2.534,0,1,1,0-5.068h67.785a2.534,2.534,0,0,1,0,5.068Z" transform="translate(-369.676 -316.553)" fill="#5548d9"/>
    <ellipse id="Ellipse_11" data-name="Ellipse 11" cx="9.503" cy="9.503" rx="9.503" ry="9.503" transform="translate(21.23 55.827)" fill="#5548d9"/>
    <path id="Path_30" data-name="Path 30" d="M612.181,421.193h-8.869a2.534,2.534,0,1,1,0-5.068h8.869a2.534,2.534,0,1,1,0,5.068Z" transform="translate(-496.753 -338.759)" fill="#fff"/>
    <path id="Path_31" data-name="Path 31" d="M612.181,421.193h-8.869a2.534,2.534,0,1,1,0-5.068h8.869a2.534,2.534,0,1,1,0,5.068Z" transform="translate(-496.753 -338.759)" fill="#ccc"/>
    <path id="Path_32" data-name="Path 32" d="M422.2,494.125H321.469a5.392,5.392,0,0,0-5.385,5.385v32.309a5.392,5.392,0,0,0,5.385,5.385H422.2a5.39,5.39,0,0,0,5.385-5.385V499.51A5.391,5.391,0,0,0,422.2,494.125Zm4.751,37.693a4.755,4.755,0,0,1-4.751,4.751H321.469a4.757,4.757,0,0,1-4.751-4.751V499.51a4.757,4.757,0,0,1,4.751-4.751H422.2a4.755,4.755,0,0,1,4.751,4.751Z" transform="translate(-302.236 -392.052)" fill="#3f3d56"/>
    <path id="Path_33" data-name="Path 33" d="M452.482,545.693H417.323a2.534,2.534,0,1,1,0-5.068h35.159a2.534,2.534,0,0,1,0,5.068Z" transform="translate(-369.676 -423.823)" fill="#5548d9"/>
    <path id="Path_34" data-name="Path 34" d="M485.108,572.693H417.323a2.534,2.534,0,1,1,0-5.068h67.785a2.534,2.534,0,0,1,0,5.068Z" transform="translate(-369.676 -442.271)" fill="#5548d9"/>
    <ellipse id="Ellipse_12" data-name="Ellipse 12" cx="9.503" cy="9.503" rx="9.503" ry="9.503" transform="translate(21.23 114.11)" fill="#5548d9"/>
    <path id="Path_35" data-name="Path 35" d="M612.181,605.193h-8.869a2.534,2.534,0,0,1,0-5.068h8.869a2.534,2.534,0,1,1,0,5.068Z" transform="translate(-496.753 -464.476)" fill="#ccc"/>
    <path id="Path_36" data-name="Path 36" d="M830.3,726.758H785.953a.317.317,0,1,1,0-.633H830.3a.317.317,0,1,1,0,.633Z" transform="translate(-623.057 -550.566)" fill="#3f3d56"/>
  </g>
</svg>
