<svg id="undraw_preferences_re_49in" xmlns="http://www.w3.org/2000/svg" width="211.84" height="176.126" viewBox="0 0 211.84 176.126">
  <path id="Path_37" data-name="Path 37" d="M901.511,606.544c-1.481,5.139-5.806,8.736-10.318,11.791q-.945.64-1.89,1.251l-.013.008c-.031.02-.061.039-.089.059l-.389.251.071.032s.07.037-.007.006l-.069-.028c-2.621-1.057-5.288-2.192-7.3-4.172-2.084-2.056-3.3-5.281-2.173-7.983a5.165,5.165,0,0,1,.558-1c.092-.131.19-.256.293-.379a5.528,5.528,0,0,1,9.495,1.68c.331-3.086-2.213-5.671-4.662-7.578s-5.234-3.982-5.707-7.051a5.982,5.982,0,0,1,1.411-4.69c.034-.04.067-.081.1-.12a8.068,8.068,0,0,1,5.186-2.782c3.757-.39,7.406,1.6,10.135,4.21C900.54,594.247,903.2,600.7,901.511,606.544Z" transform="translate(-693.542 -443.828)" fill="#f2f2f2"/>
  <path id="Path_38" data-name="Path 38" d="M896.834,606.613a13.715,13.715,0,0,1,1.643,3.624,11.91,11.91,0,0,1,.412,3.517,15.259,15.259,0,0,1-2,6.944,21.962,21.962,0,0,1-3.313,4.427q-.945.64-1.89,1.251l-.013.008-.089.059-.389.251s.14.069.064.038l-.069-.028a12.032,12.032,0,0,0-8.911-13.157c.091-.131.19-.256.293-.379a12.7,12.7,0,0,1,2.1.793,12.439,12.439,0,0,1,5.624,5.422,12.717,12.717,0,0,1,1.385,6.978c.108-.1.216-.2.32-.3a22.3,22.3,0,0,0,4.958-6.448,14.194,14.194,0,0,0,1.486-6.716,12.828,12.828,0,0,0-2.572-6.933,29.718,29.718,0,0,0-5.632-5.8,33.767,33.767,0,0,0-7-4.325.243.243,0,0,1-.122-.312.207.207,0,0,1,.1-.12.18.18,0,0,1,.156.007c.309.142.616.287.92.437a34.142,34.142,0,0,1,7.055,4.654A27.5,27.5,0,0,1,896.834,606.613Z" transform="translate(-695.926 -450.617)" fill="#fff"/>
  <path id="Path_39" data-name="Path 39" d="M411.312,197.674H233.348a2.559,2.559,0,0,0-2.557,2.557V320.824a2.559,2.559,0,0,0,2.557,2.557H411.312a2.555,2.555,0,0,0,1.944-.9.611.611,0,0,0,.056-.07,2.394,2.394,0,0,0,.366-.619,2.494,2.494,0,0,0,.193-.97V200.231A2.559,2.559,0,0,0,411.312,197.674Zm1.83,123.15a1.81,1.81,0,0,1-.3,1,1.89,1.89,0,0,1-.692.622,1.813,1.813,0,0,1-.836.2H233.348a1.829,1.829,0,0,1-1.827-1.827V200.231a1.829,1.829,0,0,1,1.827-1.827H411.312a1.829,1.829,0,0,1,1.83,1.827Z" transform="translate(-230.791 -197.674)" fill="#3f3d56"/>
  <rect id="Rectangle_33" data-name="Rectangle 33" width="182.35" height="0.731" transform="translate(0.364 10.247)" fill="#3f3d56"/>
  <ellipse id="Ellipse_13" data-name="Ellipse 13" cx="2.193" cy="2.193" rx="2.193" ry="2.193" transform="translate(4.384 3.289)" fill="#3f3d56"/>
  <ellipse id="Ellipse_14" data-name="Ellipse 14" cx="2.193" cy="2.193" rx="2.193" ry="2.193" transform="translate(10.688 3.289)" fill="#3f3d56"/>
  <ellipse id="Ellipse_15" data-name="Ellipse 15" cx="2.193" cy="2.193" rx="2.193" ry="2.193" transform="translate(16.991 3.289)" fill="#3f3d56"/>
  <path id="Path_40" data-name="Path 40" d="M619.344,344.516a5.915,5.915,0,1,1,5.915-5.915A5.915,5.915,0,0,1,619.344,344.516Zm0-11.269A5.354,5.354,0,1,0,624.7,338.6a5.354,5.354,0,0,0-5.354-5.354Z" transform="translate(-501.244 -293.103)" fill="#5548d9"/>
  <path id="Path_395" data-name="Path 395" d="M627.088,349.861a.585.585,0,0,1-.352-.117l-.006,0-1.324-1.013a.588.588,0,0,1,.716-.934l.858.658,2.027-2.644a.588.588,0,0,1,.825-.109h0l-.013.017.013-.017a.589.589,0,0,1,.109.825l-2.384,3.109a.589.589,0,0,1-.468.229Z" transform="translate(-509.547 -302.213)" fill="#5548d9"/>
  <path id="Path_41" data-name="Path 41" d="M677.069,344.516a5.915,5.915,0,1,1,5.915-5.915A5.915,5.915,0,0,1,677.069,344.516Zm0-11.269a5.354,5.354,0,1,0,5.354,5.354,5.354,5.354,0,0,0-5.354-5.354Z" transform="translate(-542.045 -293.103)" fill="#e6e6e6"/>
  <path id="Path_42" data-name="Path 42" d="M688.322,349.573a.379.379,0,0,1-.535,0l-1.419-1.419a.169.169,0,0,0-.239,0l-1.419,1.419a.379.379,0,0,1-.535-.535l1.419-1.419a.169.169,0,0,0,0-.238l-1.419-1.419a.379.379,0,0,1,.535-.535l1.419,1.419a.169.169,0,0,0,.239,0l1.419-1.419a.379.379,0,1,1,.536.535L686.9,347.38a.169.169,0,0,0,0,.239l1.419,1.419a.379.379,0,0,1,0,.535Z" transform="translate(-551.17 -302.028)" fill="#e6e6e6"/>
  <path id="Path_43" data-name="Path 43" d="M619.344,408.566a5.915,5.915,0,1,1,5.915-5.915A5.915,5.915,0,0,1,619.344,408.566Zm0-11.269a5.354,5.354,0,1,0,5.354,5.354,5.354,5.354,0,0,0-5.354-5.354Z" transform="translate(-501.244 -338.374)" fill="#5548d9"/>
  <path id="Path_395-2" data-name="Path 395" d="M627.088,413.911a.585.585,0,0,1-.352-.117l-.006,0-1.324-1.013a.588.588,0,0,1,.716-.934l.858.658,2.027-2.644a.588.588,0,0,1,.825-.109h0l-.013.017.013-.017a.589.589,0,0,1,.109.825l-2.384,3.108a.588.588,0,0,1-.468.229Z" transform="translate(-509.547 -347.484)" fill="#5548d9"/>
  <path id="Path_44" data-name="Path 44" d="M677.069,408.566a5.915,5.915,0,1,1,5.915-5.915A5.915,5.915,0,0,1,677.069,408.566Zm0-11.269a5.354,5.354,0,1,0,5.354,5.354,5.354,5.354,0,0,0-5.354-5.354Z" transform="translate(-542.045 -338.374)" fill="#e6e6e6"/>
  <path id="Path_45" data-name="Path 45" d="M688.322,413.623a.379.379,0,0,1-.535,0l-1.419-1.419a.169.169,0,0,0-.239,0l-1.419,1.419a.379.379,0,0,1-.535-.535l1.419-1.419a.169.169,0,0,0,0-.239l-1.419-1.419a.379.379,0,1,1,.535-.535l1.419,1.419a.169.169,0,0,0,.239,0l1.419-1.419a.379.379,0,1,1,.536.535L686.9,411.43a.169.169,0,0,0,0,.239l1.419,1.419a.379.379,0,0,1,0,.535Z" transform="translate(-551.17 -347.3)" fill="#e6e6e6"/>
  <path id="Path_46" data-name="Path 46" d="M619.344,472.615a5.915,5.915,0,1,1,5.915-5.915A5.915,5.915,0,0,1,619.344,472.615Zm0-11.269A5.354,5.354,0,1,0,624.7,466.7a5.354,5.354,0,0,0-5.354-5.354Z" transform="translate(-501.244 -383.645)" fill="#e6e6e6"/>
  <path id="Path_395-3" data-name="Path 395" d="M627.088,477.96a.585.585,0,0,1-.352-.117l-.006,0-1.324-1.013a.588.588,0,0,1,.716-.934l.858.658,2.027-2.644a.588.588,0,0,1,.825-.109h0l-.013.017.013-.017a.589.589,0,0,1,.109.825l-2.384,3.109a.588.588,0,0,1-.468.229Z" transform="translate(-509.547 -392.755)" fill="#e6e6e6"/>
  <path id="Path_47" data-name="Path 47" d="M677.069,472.615a5.915,5.915,0,1,1,5.915-5.915A5.915,5.915,0,0,1,677.069,472.615Zm0-11.269a5.354,5.354,0,1,0,5.354,5.354,5.354,5.354,0,0,0-5.354-5.354Z" transform="translate(-542.045 -383.645)" fill="#e6e6e6"/>
  <path id="Path_48" data-name="Path 48" d="M688.322,477.672a.379.379,0,0,1-.535,0l-1.419-1.419a.169.169,0,0,0-.239,0l-1.419,1.419a.379.379,0,1,1-.535-.535l1.419-1.419a.169.169,0,0,0,0-.239l-1.419-1.419a.379.379,0,1,1,.535-.535l1.419,1.419a.169.169,0,0,0,.239,0l1.419-1.419a.379.379,0,1,1,.536.536l-1.419,1.419a.169.169,0,0,0,0,.239l1.419,1.419a.379.379,0,0,1,0,.535Z" transform="translate(-551.17 -392.57)" fill="#e6e6e6"/>
  <path id="Path_49" data-name="Path 49" d="M698.206,700.617H586.5a.293.293,0,1,1,0-.586h111.7a.293.293,0,0,1,0,.586Z" transform="translate(-486.659 -524.578)" fill="#3f3d56"/>
  <path id="Path_50" data-name="Path 50" d="M637.961,415.234a2.948,2.948,0,0,0,4.277-1.464l10.471.349-2.844-4.642-9.508.381a2.964,2.964,0,0,0-2.4,5.377Z" transform="translate(-519.522 -319.21)" fill="#ffb8b8"/>
  <path id="Path_51" data-name="Path 51" d="M830.274,471a2.948,2.948,0,0,0-.693-4.467l2.177-10.248-5.069,1.987L825.4,467.7a2.964,2.964,0,0,0,4.875,3.3Z" transform="translate(-652.794 -352.294)" fill="#ffb8b8"/>
  <path id="Path_52" data-name="Path 52" d="M515.581,457.549h-3.595l-1.71-13.864h5.3Z" transform="translate(-362.632 -285.434)" fill="#ffb8b8"/>
  <path id="Path_53" data-name="Path 53" d="M734.345,689.3h-11.59v-.147a4.511,4.511,0,0,1,4.511-4.511h7.079Z" transform="translate(-580.479 -513.702)" fill="#2f2e41"/>
  <path id="Path_54" data-name="Path 54" d="M575.581,457.549h-3.594l-1.71-13.864h5.3Z" transform="translate(-405.04 -285.434)" fill="#ffb8b8"/>
  <path id="Path_55" data-name="Path 55" d="M794.345,689.3h-11.59v-.147a4.511,4.511,0,0,1,4.511-4.511h7.079Z" transform="translate(-622.888 -513.702)" fill="#2f2e41"/>
  <path id="Path_56" data-name="Path 56" d="M745.117,541.331l-5.088-.2a1.323,1.323,0,0,1-1.266-1.359l1.434-47.021.094-.034c8.918-3.226,16.295-2.982,22.554.745l.07.042.859,45.8a1.319,1.319,0,0,1-1.319,1.344h-4.29a1.322,1.322,0,0,1-1.295-1.065l-5.845-29.732a.44.44,0,0,0-.868.032l-3.676,30.295a1.327,1.327,0,0,1-1.31,1.16Z" transform="translate(-591.793 -376.454)" fill="#2f2e41"/>
  <ellipse id="Ellipse_16" data-name="Ellipse 16" cx="7.201" cy="7.201" rx="7.201" ry="7.201" transform="translate(151.073 60.655)" fill="#ffb8b8"/>
  <path id="Path_57" data-name="Path 57" d="M661.709,392.988a1.322,1.322,0,0,1,0-.787l.746-2.39a1.324,1.324,0,0,1,1.2-.925l9.447-.418,15.327-7.857a4.25,4.25,0,0,1,2.576,8.1l-9.393,5.448a13.6,13.6,0,0,1-9.439,1.582l-9.459-1.853a1.318,1.318,0,0,1-1.005-.9Z" transform="translate(-537.288 -298.666)" fill="#ccc"/>
  <path id="Path_58" data-name="Path 58" d="M808.592,406.989a1.321,1.321,0,0,1-.787.034l-2.42-.644a1.324,1.324,0,0,1-.975-1.161l-.82-9.421-8.5-14.978a4.25,4.25,0,1,1,7.984-2.918l5.844,9.152a13.6,13.6,0,0,1,1.983,9.363l-1.449,9.53a1.321,1.321,0,0,1-.581.905A1.307,1.307,0,0,1,808.592,406.989Z" transform="translate(-631.421 -294.918)" fill="#ccc"/>
  <path id="Path_59" data-name="Path 59" d="M742.59,367.015a12.262,12.262,0,0,1,9.833-3.976l.36.025h0a12.236,12.236,0,0,1,8.843,4.881,12.42,12.42,0,0,1,2.206,10.011,38.807,38.807,0,0,0,1.025,19.9l1.932,6a1.319,1.319,0,0,1-1.185,1.722l-9.876.531-2.527-4.365v4.5l-12,.645-.071,0a1.319,1.319,0,0,1-1.315-1.425l1.357-16.824-1.7-11.426a12.34,12.34,0,0,1,3.125-10.2Z" transform="translate(-592.192 -286.37)" fill="#ccc"/>
  <path id="Path_60" data-name="Path 60" d="M759.367,318.391c-.667.384-3.3.638-3.49-.108l0-.016a5.615,5.615,0,0,1,.015-1.678,2.1,2.1,0,0,0-.4-1.589c-.712-.768-1.978-.361-3.008-.555a2.54,2.54,0,0,1-1.976-2.713c.015-.117.038-.233.063-.35a1.956,1.956,0,0,0-2.031-2.369c-1.04.06-2.163.375-3.024-.4a3.3,3.3,0,0,1-.535-2.991c.491-1.419,3.639-2.161,5.014-2.569a11.909,11.909,0,0,1,10.095,1.656,5.346,5.346,0,0,1,2.049,2.376,2.6,2.6,0,0,1-.643,2.909,5.375,5.375,0,0,1,1.245,5.221C762.326,316.546,760.359,317.82,759.367,318.391Z" transform="translate(-596.088 -243.66)" fill="#2f2e41"/>
  <path id="Path_61" data-name="Path 61" d="M338.853,346.936H292.746a2.242,2.242,0,0,1,0-4.484h46.107a2.242,2.242,0,0,1,0,4.484Z" transform="translate(-272.997 -300.005)" fill="#5548d9"/>
  <path id="Path_62" data-name="Path 62" d="M360.958,362.856H281.8a.293.293,0,1,1,0-.586h79.16a.293.293,0,1,1,0,.586Z" transform="translate(-266.636 -314.013)" fill="#3f3d56"/>
  <path id="Path_63" data-name="Path 63" d="M338.853,410.986H292.746a2.242,2.242,0,1,1,0-4.484h46.107a2.242,2.242,0,0,1,0,4.484Z" transform="translate(-272.997 -345.276)" fill="#5548d9"/>
  <path id="Path_64" data-name="Path 64" d="M360.958,426.905H281.8a.293.293,0,0,1,0-.586h79.16a.293.293,0,1,1,0,.586Z" transform="translate(-266.636 -359.283)" fill="#3f3d56"/>
  <path id="Path_65" data-name="Path 65" d="M338.853,475.036H292.746a2.242,2.242,0,1,1,0-4.484h46.107a2.242,2.242,0,0,1,0,4.484Z" transform="translate(-272.997 -390.547)" fill="#f2f2f2"/>
  <path id="Path_66" data-name="Path 66" d="M360.958,490.955H281.8a.293.293,0,1,1,0-.586h79.16a.293.293,0,1,1,0,.586Z" transform="translate(-266.636 -404.555)" fill="#3f3d56"/>
</svg>
