<svg xmlns="http://www.w3.org/2000/svg" width="760.46" height="525.329" viewBox="0 0 760.46 525.329">
  <g id="undraw_road_sign_re_3kc3" transform="translate(230.562)">
    <ellipse id="Ellipse_19" data-name="Ellipse 19" cx="33.929" cy="33.929" rx="33.929" ry="33.929" transform="translate(372.303 0)" fill="#ff6584"/>
    <path id="Path_98" data-name="Path 98" d="M474.422,322.48a55.635,55.635,0,0,0,36.158-13.352c3.361-2.877,6.943-7.88,10.645-14.867a34,34,0,0,0,1.078-29.353,39.009,39.009,0,0,0,6.443,5.285l1.178.784.068-1.412c.045-.919.067-1.834.067-2.721,0-5.227-3.954-10.531-2.13-15.363,7.685-20.364,32.059-40.6-3.267-72.118-3.268-2.915,1.1-8.744,1.1-13.155,0-43.229-46.97-108.075-78.413-78.4-18.354,17.323-56.592,29.629-74.446,53.725l-.236.714.7.282a42.02,42.02,0,0,0,11.165,2.97,53.238,53.238,0,0,1-12.449,1.043l-.648-.023-.158.629a78.761,78.761,0,0,0-2.338,19.058l0,.694a34.725,34.725,0,0,1-11.471,25.892,55.764,55.764,0,0,0-18.193,41.148c0,9.164,6.229,21.194,11.454,29.672a16.778,16.778,0,0,0,12.317,7.89,16.385,16.385,0,0,0,13.224-4.272,54.183,54.183,0,0,1-9.556,13.529L366,281.5l.885.516a55.6,55.6,0,0,0,28.026,7.569l.577,0c14.95,0,29.141,5.792,38.933,15.891a56.058,56.058,0,0,0,40,17.011Z" transform="translate(-106.37 -72.216)" fill="#e6e6e6"/>
    <path id="Path_99" data-name="Path 99" d="M454.739,466.432a1,1,0,0,0,.989-.86c.043-.3,4.206-30.329.467-70.239-3.454-36.859-14.544-89.949-47.767-133.55A1,1,0,1,0,406.836,263c32.936,43.225,43.937,95.925,47.367,132.524,3.718,39.679-.413,69.475-.456,69.771a1,1,0,0,0,.992,1.142Z" transform="translate(-67.067 -129.015)" fill="#ccc"/>
    <path id="Path_100" data-name="Path 100" d="M552.947,338.582a1,1,0,0,0,.589-1.81,137.908,137.908,0,0,0-30.445-15.5c-16.8-6.149-42.339-11.724-68.634-3.355a1,1,0,1,0,.607,1.907c25.756-8.2,50.836-2.714,67.339,3.328A135.646,135.646,0,0,1,552.36,338.39,1,1,0,0,0,552.947,338.582Z" transform="translate(-195.61 -145.414)" fill="#ccc"/>
    <path id="Path_101" data-name="Path 101" d="M417.669,177.3a1,1,0,0,0-1.763-.718,137.907,137.907,0,0,0-17.65,29.249c-7.343,16.31-14.743,41.385-8.289,68.214a1,1,0,0,0,1.945-.468c-6.321-26.28.954-50.9,8.169-66.925a135.638,135.638,0,0,1,17.355-28.781,1,1,0,0,0,.233-.572Z" transform="translate(-13.851 -102.303)" fill="#ccc"/>
    <path id="Path_102" data-name="Path 102" d="M497.6,616.905c68.821,0,121.645-3.622,158.309-18.147,89.3-35.375,119.578-50.066,119.873-50.21l-.6-1.233c-.295.144-30.54,14.818-119.776,50.167-52.93,20.969-140.018,19.1-260.555,16.509-22.619-.485-262.059-.988-286.968-1.388l-.021,1.373c24.905.4,264.343.9,286.961,1.388C432.314,616.169,466.583,616.905,497.6,616.905Z" transform="translate(-337.892 -218.69)" fill="#cacaca"/>
    <path id="Path_103" data-name="Path 103" d="M346.109,761.3l.971-.971c-33.344-33.344-95.528-83.142-98.251-85.84l98.251-70.97-.8-1.113-99.564,71.92.577.57C247.4,675,308.115,723.3,346.109,761.3Z" transform="translate(153.371 -235.967)" fill="#cacaca"/>
    <path id="Path_104" data-name="Path 104" d="M789.429,799.65l.936-1c-3.076-2.87-75.424-70.24-89.522-70.24H700.8l-542.081,3.3.013,1.373,542.082-3.3h.04C714.4,729.779,788.68,798.951,789.429,799.65Z" transform="translate(-388.757 -275.486)" fill="#cacaca"/>
    <path id="Path_121" data-name="Path 121" d="M-240,0H68.667V1.373H-240Z" transform="translate(9.438 419.156)" fill="#cacaca"/>
    <rect id="Rectangle_41" data-name="Rectangle 41" width="83.223" height="1.373" transform="translate(150.687 419.156)" fill="#cacaca"/>
    <path id="Path_105" data-name="Path 105" d="M431.8,498.347h48.046V486.209H462a4.118,4.118,0,0,1-4.118-4.118V468.941A4.118,4.118,0,0,1,462,464.823h17.846V460.7a5.491,5.491,0,0,1,10.982,0v4.118h65.954a4.119,4.119,0,0,1,2.38.757l9.284,6.575a4.118,4.118,0,0,1,0,6.722l-9.284,6.575a4.118,4.118,0,0,1-2.38.757H490.825v12.138h48.046a4.118,4.118,0,0,1,4.118,4.118v13.149a4.118,4.118,0,0,1-4.118,4.118H490.825v45.3a5.491,5.491,0,0,1-10.982,0v-45.3H431.8a4.118,4.118,0,0,1-4.118-4.118V502.465a4.118,4.118,0,0,1,4.118-4.118Z" transform="translate(-193.942 -189.804)" fill="#3f3d56"/>
    <path id="Path_106" data-name="Path 106" d="M460.2,483.519h34.318a2.4,2.4,0,0,0,0-4.8H460.2a2.4,2.4,0,0,0,0,4.8Z" transform="translate(-141.353 -197.175)" fill="#5548d9"/>
    <path id="Path_107" data-name="Path 107" d="M522.2,534.519h34.318a2.4,2.4,0,0,0,0-4.8H522.2a2.4,2.4,0,0,0,0,4.8Z" transform="translate(-245.908 -213.17)" fill="#fff"/>
    <path id="Path_108" data-name="Path 108" d="M225.771,598.347V586.209H207.925a4.118,4.118,0,0,1-4.118-4.118V568.941a4.118,4.118,0,0,1,4.118-4.118h17.846v-3.93a5.616,5.616,0,0,1,5.125-5.667,5.491,5.491,0,0,1,5.856,5.479v4.118l73.859,34.558a2.438,2.438,0,0,1,1.286,1.449c.582,1.772,1.8,5.554,2.635,8.537a3.2,3.2,0,0,1-3.191,4.055c-4.76-.146-7.892-.368-10.065-.428a3.182,3.182,0,0,1-1.215-.278l-63.309-26.506v78.636a5.616,5.616,0,0,1-5.125,5.667,5.491,5.491,0,0,1-5.856-5.479V598.347Z" transform="translate(215.249 -221.167)" fill="#3f3d56"/>
    <path id="Path_109" data-name="Path 109" d="M242.4,598.581l31.316,14.038a2.4,2.4,0,0,0,1.965-4.384L244.369,594.2a2.4,2.4,0,1,0-1.965,4.384Z" transform="translate(227.277 -233.328)" fill="#fff"/>
    <path id="Path_110" data-name="Path 110" d="M882.86,437.75,897.17,439.2a42.4,42.4,0,0,1-3.718,21.454l4.294,40h-.064a4.644,4.644,0,1,1-7.658-.558l-9.544-35.687Z" transform="translate(-832.857 -184.327)" fill="#a0616a"/>
    <path id="Path_111" data-name="Path 111" d="M629.368,614.292l6.08-1.048.6-18.355-10.718-4.053Z" transform="translate(-535.347 -185.305)" fill="#a0616a"/>
    <path id="Path_112" data-name="Path 112" d="M811.626,697.584l18.7-3.222-.041-.236a7.386,7.386,0,0,0-8.532-6.025h0l-3.862-2-5.927,3.69-1.632.281Z" transform="translate(-716.727 -262.217)" fill="#2f2e41"/>
    <path id="Path_113" data-name="Path 113" d="M694.542,597.213l5.266,3.216,14.912-18.782-7.773-4.746Z" transform="translate(-661.53 -180.934)" fill="#a0616a"/>
    <path id="Path_114" data-name="Path 114" d="M907.545,679.887l16.195,9.89.125-.2a7.386,7.386,0,0,0-2.454-10.153h0l-1.587-4.051-6.89-1.126-1.414-.863Z" transform="translate(-878.074 -258.228)" fill="#2f2e41"/>
    <path id="Path_115" data-name="Path 115" d="M882.124,525.814l3.649,13.865s1,5.746.48,6.262a6.928,6.928,0,0,0-1.264,4.271c.232,1.406,2.593.833,1.412,2.926s2.468,33.941,2.468,33.941l3.268,39.161-11.668,1.373c-1.675-.981-1.921-2.1-.932-3.328,0,0-2.393-2.76-1.074-3.834s-1.064-1.523-1.194-4.264l-7.532-26.893-2.492-6.012.652-3.136-1.894-3.6-.91-9.444-2.469,24.82L839.563,618.4l-11.354-5.677-.666-1.451a2.7,2.7,0,0,1,1.029-3.415h0l3.852-3.583c-.33-1.476,4.91-5.177,4.91-5.177l8.774-16.515-5.448-46.259s-8.236-10.982,2.675-20.919C847.8,511.335,882.124,525.814,882.124,525.814Z" transform="translate(-790.183 -208.456)" fill="#2f2e41"/>
    <path id="Path_116" data-name="Path 116" d="M846.574,473.535c-1.934-2.875-6.579,1.254-5.031-3.907s5.466-6.12,1.959-11.06l-5.055-24.62h0a22.651,22.651,0,0,1,5.564-16.071l7.277-8.328,1.093-2.954,12.386-.516,1.032,3.613c3.7,4.607,9.756,10.524,9.575,19.226-.349,16.746,2.263,39.028,8.7,68.015,0,0-14.385-11.232-18.908-6.366s-18.149,3.544-21.554.153a20.164,20.164,0,0,1-4.645-8.258S848.508,476.41,846.574,473.535Z" transform="translate(-789.747 -174.394)" fill="#5548d9"/>
    <path id="Path_117" data-name="Path 117" d="M837.482,494.363l28.24-7.962,18.532,8.923c-8.3-15.439-13.346-41.146-11.751-62.984a25.181,25.181,0,0,0-2.633-13.449c-2.548-4.9-6.532-8.368-12.384-7.99l-7.55-.686-4.8,2.745c-6.952,7.283-9.687,18.149-8.6,28.16,1.194,11.049,2.68,24.471,2.98,25.67.176.7-.38,1.941-.969,3.25-.993,2.209-2.229,4.958-.512,6.676a5,5,0,0,1,1.684,3.663,4.48,4.48,0,0,1-1.671,3.185c-2.194,1.9-.667,10.211-.6,10.565Z" transform="translate(-788.477 -175.691)" fill="#2f2e41"/>
    <path id="Path_118" data-name="Path 118" d="M836.466,452.06l14.188-2.369a42.4,42.4,0,0,1,2.064,21.676L867.4,508.818l-.062.016a4.644,4.644,0,1,1-7.534,1.479L841.193,478.4Z" transform="translate(-773.053 -188.072)" fill="#a0616a"/>
    <path id="Path_119" data-name="Path 119" d="M877.544,452.938l-16.473-3.432-2.69-11.955a9.29,9.29,0,1,1,18.58,0C878.62,444.2,878.331,446.131,877.544,452.938Z" transform="translate(-797.553 -181.351)" fill="#5548d9"/>
    <ellipse id="Ellipse_20" data-name="Ellipse 20" cx="12.902" cy="12.902" rx="12.902" ry="12.902" transform="translate(56.441 204.332)" fill="#a0616a"/>
    <path id="Path_120" data-name="Path 120" d="M853.454,368.064c1-1.8,5,.5,6.236-1.142a13.472,13.472,0,0,1,3.678-3.62,8.034,8.034,0,0,1,7.921-.088,15.934,15.934,0,0,0,2.846,1.617,2.339,2.339,0,0,0,2.854-.915l-.955,2.613A3.717,3.717,0,0,0,880.821,365q.084,1.353.168,2.705a1.078,1.078,0,0,1,1.185-.756,1.942,1.942,0,0,1,1.321,1.382c.815,2.4-1.135,5.194-3.634,5.6-1.546.248-3.1-.248-4.652-.458s-3.348-.035-4.328,1.186c-.963,1.2-.776,2.908-.832,4.445s-.728,3.38-2.251,3.585c-1.046.141-2.045-.589-3.1-.526-1.5.089-2.468,1.817-2.306,3.315a8.441,8.441,0,0,0,2.012,3.981l-4.505.356.582.161c-3.674-.18-6.509-3.745-6.948-7.4S851.66,371.275,853.454,368.064Z" transform="translate(-799.078 -160.636)" fill="#2f2e41"/>
  </g>
</svg>
