<svg xmlns="http://www.w3.org/2000/svg" width="302.26" height="300.808" viewBox="0 0 302.26 300.808">
  <g id="undraw_add_notes_re_ln36" transform="translate(0)">
    <path id="Path_67" data-name="Path 67" d="M643.038,290.109H593.427a7.141,7.141,0,0,1-5.64-2.733h0a7.23,7.23,0,0,1-1.354-6.2,125.444,125.444,0,0,0,0-58.262,7.232,7.232,0,0,1,1.354-6.2,7.141,7.141,0,0,1,5.64-2.733h49.611a7.232,7.232,0,0,1,7.117,6.069,210.261,210.261,0,0,1,0,63.993A7.231,7.231,0,0,1,643.038,290.109Z" transform="translate(-443.665 -210.414)" fill="#e6e6e6"/>
    <path id="Path_68" data-name="Path 68" d="M595.695,219.978a3.429,3.429,0,0,0-2.709,1.312,3.521,3.521,0,0,0-.656,3.02,129.192,129.192,0,0,1,0,60,3.519,3.519,0,0,0,.655,3.019h0a3.429,3.429,0,0,0,2.709,1.312h49.611a3.473,3.473,0,0,0,3.427-2.9,206.543,206.543,0,0,0,0-62.859,3.473,3.473,0,0,0-3.427-2.9Z" transform="translate(-445.934 -212.681)" fill="#fff"/>
    <path id="Path_69" data-name="Path 69" d="M642.063,243.409H616.029a3.737,3.737,0,0,1-3.733-3.733v-1.459a3.737,3.737,0,0,1,3.733-3.733h26.034a3.737,3.737,0,0,1,3.733,3.733v1.459a3.737,3.737,0,0,1-3.733,3.733Z" transform="translate(-453.516 -218.163)" fill="#e6e6e6"/>
    <path id="Path_70" data-name="Path 70" d="M642.063,273.034H616.029A3.737,3.737,0,0,1,612.3,269.3v-1.458a3.737,3.737,0,0,1,3.733-3.733h26.034a3.737,3.737,0,0,1,3.733,3.733V269.3A3.737,3.737,0,0,1,642.063,273.034Z" transform="translate(-453.516 -229.357)" fill="#e6e6e6"/>
    <path id="Path_71" data-name="Path 71" d="M642.063,302.66H616.029a3.737,3.737,0,0,1-3.733-3.733v-1.459a3.737,3.737,0,0,1,3.733-3.733h26.034a3.737,3.737,0,0,1,3.733,3.733v1.459A3.737,3.737,0,0,1,642.063,302.66Z" transform="translate(-453.516 -240.551)" fill="#e6e6e6"/>
    <path id="Path_72" data-name="Path 72" d="M793.038,366.109H743.427a7.141,7.141,0,0,1-5.64-2.733h0a7.23,7.23,0,0,1-1.354-6.2,125.444,125.444,0,0,0,0-58.262,7.232,7.232,0,0,1,1.354-6.2,7.141,7.141,0,0,1,5.64-2.733h49.611a7.232,7.232,0,0,1,7.117,6.069,210.259,210.259,0,0,1,0,63.993A7.231,7.231,0,0,1,793.038,366.109Z" transform="translate(-500.343 -239.131)" fill="#e6e6e6"/>
    <path id="Path_73" data-name="Path 73" d="M745.695,295.978a3.429,3.429,0,0,0-2.709,1.312,3.521,3.521,0,0,0-.656,3.02,129.193,129.193,0,0,1,0,60,3.519,3.519,0,0,0,.655,3.019h0a3.429,3.429,0,0,0,2.709,1.312h49.611a3.473,3.473,0,0,0,3.427-2.9,206.542,206.542,0,0,0,0-62.859,3.473,3.473,0,0,0-3.427-2.9Z" transform="translate(-502.612 -241.398)" fill="#fff"/>
    <path id="Path_74" data-name="Path 74" d="M633.849,452.232H584.238a7.451,7.451,0,0,1-5.884-2.852,7.54,7.54,0,0,1-1.412-6.467,125.133,125.133,0,0,0,0-58.117,7.541,7.541,0,0,1,1.412-6.466,7.45,7.45,0,0,1,5.885-2.852h49.611a7.545,7.545,0,0,1,7.424,6.333,210.57,210.57,0,0,1,0,64.088,7.545,7.545,0,0,1-7.424,6.333Z" transform="translate(-440.076 -271.438)" fill="#f2f2f2"/>
    <path id="Path_75" data-name="Path 75" d="M792.063,334.409H766.029a3.737,3.737,0,0,1-3.733-3.733v-1.459a3.737,3.737,0,0,1,3.733-3.733h26.034a3.737,3.737,0,0,1,3.733,3.733v1.459A3.737,3.737,0,0,1,792.063,334.409Z" transform="translate(-510.194 -252.548)" fill="#e6e6e6"/>
    <path id="Path_76" data-name="Path 76" d="M792.063,364.034H766.029A3.737,3.737,0,0,1,762.3,360.3v-1.458a3.737,3.737,0,0,1,3.733-3.733h26.034a3.737,3.737,0,0,1,3.733,3.733V360.3A3.737,3.737,0,0,1,792.063,364.034Z" transform="translate(-510.194 -263.742)" fill="#e6e6e6"/>
    <circle id="Ellipse_17" data-name="Ellipse 17" cx="14.309" cy="14.309" r="14.309" transform="translate(154.797 127.851)" fill="#fff"/>
    <path id="Path_77" data-name="Path 77" d="M630.448,429.594h-4.977v-4.977a1.866,1.866,0,0,0-3.733,0v4.977H616.76a1.866,1.866,0,0,0,0,3.733h4.977V438.3a1.866,1.866,0,0,0,3.733,0v-4.977h4.977a1.866,1.866,0,1,0,0-3.733Z" transform="translate(-454.498 -289.299)" fill="#e6e6e6"/>
    <path id="Path_78" data-name="Path 78" d="M640.324,218.827h-26.13a2.8,2.8,0,0,1-2.8-2.8V211.05a2.8,2.8,0,0,1,2.8-2.8h26.13a2.8,2.8,0,0,1,2.8,2.8v4.977A2.8,2.8,0,0,1,640.324,218.827Z" transform="translate(-453.175 -208.25)" fill="#ccc"/>
    <path id="Path_79" data-name="Path 79" d="M792.324,295.827h-26.13a2.8,2.8,0,0,1-2.8-2.8V288.05a2.8,2.8,0,0,1,2.8-2.8h26.13a2.8,2.8,0,0,1,2.8,2.8v4.977a2.8,2.8,0,0,1-2.8,2.8Z" transform="translate(-510.609 -237.345)" fill="#ccc"/>
    <path id="Path_80" data-name="Path 80" d="M88.6,453.193h7.628l2.385-29.42H88.594Z" transform="translate(-33.476 -160.124)" fill="#ffb8b8"/>
    <path id="Path_81" data-name="Path 81" d="M442.552,675.308h15.022a9.573,9.573,0,0,1,9.573,9.573v.311H442.553Z" transform="translate(-389.378 -384.729)" fill="#2f2e41"/>
    <path id="Path_82" data-name="Path 82" d="M22.6,453.193h7.628l3.629-29.42H22.594Z" transform="translate(-8.537 -160.124)" fill="#ffb8b8"/>
    <path id="Path_83" data-name="Path 83" d="M376.552,675.308h15.022a9.573,9.573,0,0,1,9.573,9.573v.311H376.553Z" transform="translate(-364.44 -384.729)" fill="#2f2e41"/>
    <path id="Path_84" data-name="Path 84" d="M378.111,595.956a3.1,3.1,0,0,1-2.1-.82h0a3.086,3.086,0,0,1-1.005-2.2L371.947,483.3l43.433,10.858,13.4,40.2a43.838,43.838,0,0,1,2.206,16.067L429.322,589.4a3.108,3.108,0,0,1-3.107,2.961H418.93a3.125,3.125,0,0,1-3.083-2.694l-5.207-43.016a23.532,23.532,0,0,0-3.442-9.434l-10.246-16.223a.622.622,0,0,0-1.143.255l-8.041,71.6a3.107,3.107,0,0,1-2.916,2.735l-6.565.365C378.229,595.953,378.17,595.956,378.111,595.956Z" transform="translate(-362.7 -312.18)" fill="#2f2e41"/>
    <circle id="Ellipse_18" data-name="Ellipse 18" cx="15.281" cy="15.281" r="15.281" transform="translate(30.172 69.584)" fill="#ffb8b8"/>
    <path id="Path_85" data-name="Path 85" d="M413.358,457.085a3.159,3.159,0,0,1-.78-.1h0l-43.093-11.049a3.11,3.11,0,0,1-2.279-3.618l9.9-53.312a19.42,19.42,0,0,1,11.354-14.023,18.735,18.735,0,0,1,17.585,1.291c.6.376,1.211.787,1.806,1.22a19.262,19.262,0,0,1,7.826,15.261l.787,61.175a3.115,3.115,0,0,1-3.1,3.155Z" transform="translate(-360.886 -270.645)" fill="#5548d9"/>
    <path id="Path_86" data-name="Path 86" d="M377.375,489.873A6.256,6.256,0,0,1,380,480.645L378.08,458.5,388.237,464l.263,20.19a6.29,6.29,0,0,1-11.125,5.683Z" transform="translate(-364.342 -302.806)" fill="#ffb8b8"/>
    <path id="Path_87" data-name="Path 87" d="M378.275,446.482a3.428,3.428,0,0,1-3.321-2.588l-4.992-19.836a29.471,29.471,0,0,1,2.34-20.615l10.458-20.457a9.669,9.669,0,0,1,11.7-6.855,9.554,9.554,0,0,1,5.895,4.418,9.685,9.685,0,0,1,1.029,7.412L386.5,421.249l.177,19.931a3.433,3.433,0,0,1-2.23,3.238l-4.982,1.85a3.409,3.409,0,0,1-1.189.215Z" transform="translate(-361.613 -271.572)" fill="#5548d9"/>
    <path id="Path_88" data-name="Path 88" d="M484.237,480.585a6.256,6.256,0,0,1-5.284-8.007l-18.038-13,10.8-4.107,15.474,12.971a6.29,6.29,0,0,1-2.95,12.139Z" transform="translate(-396.316 -301.664)" fill="#ffb8b8"/>
    <path id="Path_89" data-name="Path 89" d="M456.333,443.479a3.436,3.436,0,0,1-1.532-.362L436.51,433.96a29.478,29.478,0,0,1-14.1-15.221l-8.684-21.272a9.67,9.67,0,0,1,2.437-13.342,9.551,9.551,0,0,1,7.211-1.582,9.687,9.687,0,0,1,6.272,4.052l15.52,33,15.221,12.868a3.433,3.433,0,0,1,1,3.8l-1.848,4.982a3.422,3.422,0,0,1-3.208,2.232Z" transform="translate(-377.856 -274.049)" fill="#5548d9"/>
    <path id="Path_90" data-name="Path 90" d="M416.631,348.929c.812.355,2.474-6.114,1.73-7.408-1.108-1.924-1.042-1.91-1.777-3.184a3.691,3.691,0,0,1,.052-4.136c.952-1.12,3.156-.972,3.59.433-.28-2.668,2.359-4.812,4.973-5.415s5.371-.228,8-.765c3.05-.622,6.223-3.179,5.007-6.533a4.724,4.724,0,0,0-.921-1.514c-1.406-1.581-3.373-2.256-5.3-2.909-4-1.358-8.11-2.733-12.332-2.583a17.916,17.916,0,0,0-15.831,11.578,16.271,16.271,0,0,0-.674,2.5,16.794,16.794,0,0,0,10.425,18.445Z" transform="translate(-374.388 -248.55)" fill="#2f2e41"/>
    <path id="Path_91" data-name="Path 91" d="M38.9,247.649l.347-20.487L50.1,205.343l-8.71,22.4Z" transform="translate(-14.699 -77.589)" opacity="0.2"/>
    <path id="Path_92" data-name="Path 92" d="M523.644,509.636,477.83,490.6a7.141,7.141,0,0,1-4.16-4.688h0a7.23,7.23,0,0,1,1.129-6.246,125.445,125.445,0,0,0,22.354-53.8,7.232,7.232,0,0,1,3.63-5.207,7.141,7.141,0,0,1,6.257-.36l45.814,19.035a7.232,7.232,0,0,1,4.243,8.335,210.263,210.263,0,0,1-24.553,59.1,7.232,7.232,0,0,1-8.9,2.874Z" transform="translate(-401.033 -288.163)" fill="#e6e6e6"/>
    <path id="Path_93" data-name="Path 93" d="M507.876,426.012a3.43,3.43,0,0,0-3.005.172,3.521,3.521,0,0,0-1.764,2.537,129.193,129.193,0,0,1-23.022,55.411,3.519,3.519,0,0,0-.553,3.039h0a3.429,3.429,0,0,0,2,2.251l45.814,19.035a3.473,3.473,0,0,0,4.279-1.366,206.542,206.542,0,0,0,24.118-58.048,3.473,3.473,0,0,0-2.051-4Z" transform="translate(-403.301 -290.431)" fill="#fff"/>
    <path id="Path_94" data-name="Path 94" d="M548.382,483.036l-24.041-9.989a3.737,3.737,0,0,1-2.015-4.879l.56-1.347a3.737,3.737,0,0,1,4.879-2.015l24.041,9.989a3.737,3.737,0,0,1,2.015,4.879l-.56,1.347a3.737,3.737,0,0,1-4.879,2.015Z" transform="translate(-419.413 -305.083)" fill="#5548d9"/>
    <path id="Path_95" data-name="Path 95" d="M537.015,510.395l-24.041-9.989a3.737,3.737,0,0,1-2.015-4.879l.56-1.347a3.737,3.737,0,0,1,4.879-2.015l24.042,9.989a3.737,3.737,0,0,1,2.015,4.879l-.56,1.347A3.737,3.737,0,0,1,537.015,510.395Z" transform="translate(-415.118 -315.42)" fill="#5548d9"/>
    <path id="Path_96" data-name="Path 96" d="M563.451,443.679a2.794,2.794,0,0,1-1.05-.206l-24.225-9.794a2.8,2.8,0,0,1-1.546-3.645l1.866-4.614a2.8,2.8,0,0,1,3.645-1.546l24.225,9.794a2.8,2.8,0,0,1,1.546,3.645l-1.866,4.614A2.806,2.806,0,0,1,563.451,443.679Z" transform="translate(-424.848 -289.647)" fill="#ccc"/>
    <path id="Path_97" data-name="Path 97" d="M444.806,690.994h-87.1a.622.622,0,1,1,0-1.244h87.1a.622.622,0,1,1,0,1.244Z" transform="translate(-357.083 -390.186)" fill="#ccc"/>
  </g>
</svg>
